<svg xmlns="http://www.w3.org/2000/svg" viewBox="0 0 312.38 118.06"><defs><style>.cls-1,.cls-3{fill:#582e91;}.cls-2{fill:#b50938;}.cls-3{fill-rule:evenodd;}</style></defs><title>vistec-logo-full-subtitle</title><g id="Layer_2" data-name="Layer 2"><g id="Layer_1-2" data-name="Layer 1"><rect class="cls-1" x="28.15" y="81.69" width="4.68" height="17.49"/><rect class="cls-1" x="144.11" y="81.77" width="4.68" height="17.41"/><path class="cls-1" d="M126.27,99.44a12.33,12.33,0,0,1-1.82-.09,6.74,6.74,0,0,1-1.91-.52,7.87,7.87,0,0,1-2-1.12,9.92,9.92,0,0,1-2.08-1.82l2.6-2.94a12.67,12.67,0,0,0,1.56,1.47c.52.34,1,.6,1.3.78a3.47,3.47,0,0,0,1.21.26,5,5,0,0,0,1.13.08,3.1,3.1,0,0,0,.86-.08,2,2,0,0,0,.78-.18c.18-.17.35-.26.52-.43a1.22,1.22,0,0,0,.18-.61.49.49,0,0,0-.09-.34,1.12,1.12,0,0,0-.43-.52,2.57,2.57,0,0,0-.87-.43,11.09,11.09,0,0,0-1.64-.52c-.78-.18-1.56-.44-2.17-.61a14.17,14.17,0,0,1-1.64-.78,6.7,6.7,0,0,1-1.13-1,4.09,4.09,0,0,1-.78-1,4.67,4.67,0,0,1-.35-1.13,6.16,6.16,0,0,1-.08-1.21,7.33,7.33,0,0,1,.17-1.47,8.59,8.59,0,0,1,.69-1.3,6,6,0,0,1,1-1c.44-.26.87-.52,1.39-.78s1-.35,1.56-.52a12.81,12.81,0,0,1,1.9-.09,11.08,11.08,0,0,1,1.73.09,14.56,14.56,0,0,1,1.82.43,7.83,7.83,0,0,1,1.65,1,11.61,11.61,0,0,1,1.73,1.38l-2.6,3.21a5.27,5.27,0,0,0-1-1,7.54,7.54,0,0,0-1.12-.69,6.59,6.59,0,0,0-1.22-.43,4.13,4.13,0,0,0-1-.18c-.26,0-.52.09-.78.09a2,2,0,0,0-.61.35,1,1,0,0,0-.43.43.92.92,0,0,0-.18.52,1.2,1.2,0,0,0,.18.52.56.56,0,0,0,.34.43,4.42,4.42,0,0,0,1,.43c.34.09.86.18,1.47.35a11.53,11.53,0,0,1,3,1,6.92,6.92,0,0,1,1.91,1.3,6.61,6.61,0,0,1,1,1.65,5.76,5.76,0,0,1,.26,1.73,3.88,3.88,0,0,1-.26,1.47,3,3,0,0,1-.69,1.3,4.26,4.26,0,0,1-1,1.13c-.43.26-.87.52-1.38.78a5.15,5.15,0,0,1-1.74.52A13.83,13.83,0,0,1,126.27,99.44Z"/><path class="cls-1" d="M104.44,96.06h-3.29V92.68H103l-1.82-4.41v-6.5h2l7.54,17.5h-4.94Zm-3.29,0H97.86l-1.3,3.21H91.63l7.53-17.5h2v6.58l-1.82,4.33h1.82Z"/><path class="cls-1" d="M51.7,81.86a9.19,9.19,0,0,1,1.56.17,16.68,16.68,0,0,1,2.25.87,11.58,11.58,0,0,1,1.82,1.3,8.66,8.66,0,0,1,1.39,1.64A9.72,9.72,0,0,1,59.58,88a7.12,7.12,0,0,1,.35,2.42,7.85,7.85,0,0,1-.35,2.43A6.61,6.61,0,0,1,58.72,95a8.78,8.78,0,0,1-1.39,1.74,7.16,7.16,0,0,1-1.82,1.38,9.48,9.48,0,0,1-2.16.87,5.57,5.57,0,0,1-1.65.26v-3.9a3.9,3.9,0,0,0,.95-.35A5,5,0,0,0,54,94a4.59,4.59,0,0,0,.87-1.55,7.55,7.55,0,0,0,.26-2,7.73,7.73,0,0,0-.26-2.08,9.06,9.06,0,0,0-1-1.47A4.63,4.63,0,0,0,52.57,86c-.35-.09-.61-.18-.87-.26Zm-8.22-.09h7.36a2.8,2.8,0,0,1,.86.09v3.9a2.8,2.8,0,0,0-.86-.09h-2.6v9.7H51.7v3.9a3.14,3.14,0,0,1-.86.08H43.48Z"/><rect class="cls-1" x="185.07" y="81.86" width="4.68" height="17.41"/><path class="cls-1" d="M167,81.86h.35a9.63,9.63,0,0,1,2.86.35,7.67,7.67,0,0,1,2.25,1,6,6,0,0,1,1.47,1.81,5,5,0,0,1,.61,2.52,5.7,5.7,0,0,1-.26,1.73,6,6,0,0,1-.78,1.38,7.61,7.61,0,0,1-1.21,1.13,4.78,4.78,0,0,1-1.48.78l5,6.67h-5.37L167,94.68V89.57c.43,0,.78-.09,1.13-.09a2.67,2.67,0,0,0,.86-.34,1.43,1.43,0,0,0,.61-.61,1.49,1.49,0,0,0,.26-.87,2.24,2.24,0,0,0-.17-.78c-.18-.26-.26-.52-.52-.69a2.73,2.73,0,0,0-.87-.35,4.07,4.07,0,0,0-1.12-.17H167Zm-7.53,0H167v3.81h-2.86v3.9H167v5.11l-.95-1.3h-1.91v5.89h-4.67Z"/><polygon class="cls-1" points="204.99 89.22 204.99 99.18 200.32 99.18 200.32 81.69 204.65 81.69 209.32 88.96 214.09 81.69 218.33 81.69 218.33 99.18 213.65 99.18 213.65 89.31 209.32 95.8 204.99 89.22"/><path class="cls-1" d="M261.54,81.86a4.73,4.73,0,0,1,1.56.26,9.06,9.06,0,0,1,2.17.78,7.07,7.07,0,0,1,1.82,1.3,6.44,6.44,0,0,1,1.38,1.64,11.1,11.1,0,0,1,.87,2.08,8.82,8.82,0,0,1,0,4.85,7,7,0,0,1-.87,2.17,6.69,6.69,0,0,1-1.38,1.73,7.11,7.11,0,0,1-1.82,1.38,8,8,0,0,1-2.17.87l-1.56.26v-3.9a3.48,3.48,0,0,0,.87-.34,2.8,2.8,0,0,0,1.38-1,3.4,3.4,0,0,0,.87-1.56,4.81,4.81,0,0,0,.35-2,5.11,5.11,0,0,0-.35-2,4.49,4.49,0,0,0-1-1.47,3.85,3.85,0,0,0-1.39-.86l-.78-.26Zm-8.14,0h8.14v3.9a3.37,3.37,0,0,0-1-.09h-2.51v9.7h2.51c.35,0,.61-.09,1-.09v3.9H253.4Z"/><polygon class="cls-1" points="228.81 81.86 242.58 81.86 242.58 85.67 233.48 85.67 233.48 88.53 241.8 88.53 241.8 92.34 233.48 92.34 233.48 95.37 242.75 95.37 242.75 99.27 228.81 99.27 228.81 81.86"/><rect class="cls-1" x="305.88" y="81.77" width="4.67" height="17.41"/><polygon class="cls-1" points="279.9 81.86 284.58 81.86 284.58 88.53 290.73 88.53 290.73 81.86 295.4 81.86 295.4 99.18 290.73 99.18 290.73 92.25 284.58 92.25 284.58 99.18 279.9 99.18 279.9 81.86"/><polygon class="cls-1" points="81.15 81.69 86.86 81.69 79.76 91.21 79.76 99.27 75.08 99.27 75.08 91.21 67.98 81.69 73.7 81.69 77.42 86.8 81.15 81.69"/><path class="cls-2" d="M0,108.19H2.17v9.7H0v-9.7Zm4.25,0h1.9l4.68,6.23v-6.23H12.9v9.7H11.09l-4.68-6.41v6.41H4.25v-9.7Zm14,9.78h-1l-1-.26a6.25,6.25,0,0,1-1-.6c-.34-.26-.69-.61-1.12-1l1.3-1.55a6,6,0,0,0,.78.69,2.09,2.09,0,0,0,.78.52l.69.26h1.3c.17-.09.35-.09.52-.17a.74.74,0,0,0,.35-.35.69.69,0,0,0,.08-.43V115c0-.09,0-.18-.08-.18s-.09-.17-.18-.25-.17-.09-.34-.18-.35-.17-.52-.26a2.43,2.43,0,0,1-.78-.17,4.64,4.64,0,0,1-1.21-.35,3.12,3.12,0,0,1-1-.43c-.17-.17-.43-.35-.61-.52a1.93,1.93,0,0,1-.34-.52,1.51,1.51,0,0,1-.17-.61,1.82,1.82,0,0,1-.09-.69,2.47,2.47,0,0,1,.26-1.13,2.76,2.76,0,0,1,1.91-1.47,4.09,4.09,0,0,1,1.47-.26c.34,0,.6.09.95.09l.95.26c.26.17.61.35.87.52a6.32,6.32,0,0,1,.95.69l-1.21,1.56a3.66,3.66,0,0,0-.61-.52,3.32,3.32,0,0,0-.61-.34,4.39,4.39,0,0,0-.69-.26c-.17,0-.43-.09-.69-.09a1.06,1.06,0,0,0-.52.09.86.86,0,0,0-.43.17,1.32,1.32,0,0,0-.35.26.55.55,0,0,0-.08.34c0,.18,0,.26.08.35s.09.26.26.35.35.17.61.34a4,4,0,0,0,.95.26c.52.09.86.18,1.21.26a7.78,7.78,0,0,1,.87.44,4,4,0,0,1,.69.52c.09.17.26.34.35.52a1.7,1.7,0,0,1,.17.6,1.85,1.85,0,0,1,.09.7,2.4,2.4,0,0,1-.26,1.12,2.71,2.71,0,0,1-.78,1,4,4,0,0,1-1.21.61,4.19,4.19,0,0,1-1.48.17Zm7-7.88H22.43v-1.9h7.88v1.9H27.45v7.8H25.29v-7.8Zm6.23-1.9h2.17v9.7H31.52v-9.7Zm6.15,1.9H34.82v-1.9h8v1.9H39.84v7.8H37.67v-7.8Zm10.4,8a4.61,4.61,0,0,1-1-.17,5.09,5.09,0,0,1-1-.35,2.36,2.36,0,0,1-.87-.52,2,2,0,0,1-.69-.78,3.46,3.46,0,0,1-.44-.95,5.52,5.52,0,0,1-.17-1.21v-5.89H46v5.89a1.44,1.44,0,0,0,.17.86,1.93,1.93,0,0,0,.43.69,2.3,2.3,0,0,0,.7.35,1.85,1.85,0,0,0,1.55,0,2.3,2.3,0,0,0,.7-.35A1.57,1.57,0,0,0,50,115a1.6,1.6,0,0,0,.17-.87v-6h2.17v5.89a2.86,2.86,0,0,1-.18,1.21,2.94,2.94,0,0,1-.43.95A5.37,5.37,0,0,1,51,117a1.82,1.82,0,0,1-.87.52,5.09,5.09,0,0,1-1,.35,4.62,4.62,0,0,1-1,.17Zm8.22-8H53.35v-1.9h8v1.9H58.46v7.8H56.29v-7.8Zm6.06-1.9H69.8v1.9H64.52v2h4.85v1.82H64.52V116h5.37v1.91H62.35Z"/><path class="cls-2" d="M83.66,107.84A3.46,3.46,0,0,1,85,108a3.11,3.11,0,0,1,1.21.52,4.41,4.41,0,0,1,1,.78,5.51,5.51,0,0,1,.78,1c.17.35.35.69.52,1.13a7.23,7.23,0,0,1,.17,1.38,6.35,6.35,0,0,1-.17,1.3c-.17.44-.35.87-.52,1.21l-.78,1-1,.78a5.08,5.08,0,0,1-1.21.52,6.56,6.56,0,0,1-1.3.18v-2.08a2.4,2.4,0,0,0,1.12-.26,3.74,3.74,0,0,0,1-.61,3.47,3.47,0,0,0,.52-1,2.44,2.44,0,0,0,.26-1.13,2.4,2.4,0,0,0-.26-1.12,2.56,2.56,0,0,0-.52-1,2.36,2.36,0,0,0-1-.6,2.4,2.4,0,0,0-1.12-.26v-2.08Zm6.41.17h7.1v1.91H92.23v2h4.42v1.82H92.23v4H90.07Zm-11.43,4.85a7.23,7.23,0,0,1,.17-1.38,2.72,2.72,0,0,1,.52-1.13,2.34,2.34,0,0,1,.78-1,2.43,2.43,0,0,1,1-.78,3.32,3.32,0,0,1,1.12-.52,3.93,3.93,0,0,1,1.39-.17h0v2.08h0a2.47,2.47,0,0,0-1.13.26,2.4,2.4,0,0,0-1,.6,2.65,2.65,0,0,0-.61,1,4.62,4.62,0,0,0-.17,1.12A4.71,4.71,0,0,0,81,114a3.68,3.68,0,0,0,.61,1,3.86,3.86,0,0,0,1,.61,2.47,2.47,0,0,0,1.13.26h0v2.08h0a7.46,7.46,0,0,1-1.39-.18,6.24,6.24,0,0,1-1.12-.52,5.2,5.2,0,0,1-1-.78,3.77,3.77,0,0,1-.78-1,3,3,0,0,1-.52-1.21A6.35,6.35,0,0,1,78.64,112.86Z"/><path class="cls-2" d="M200.75,117.71v-2a1.7,1.7,0,0,0,.6-.17,2.25,2.25,0,0,0,.87-.61,3.68,3.68,0,0,0,.61-1,4.43,4.43,0,0,0,0-2.43,3.34,3.34,0,0,0-.61-.86,3.86,3.86,0,0,0-.95-.61c-.18-.08-.35-.08-.52-.17V108a5.16,5.16,0,0,1,1.64.35,7.37,7.37,0,0,1,1.65,1.21,4.77,4.77,0,0,1,.78,1.39,4.49,4.49,0,0,1,.34,1.82,7.54,7.54,0,0,1-.34,2,4,4,0,0,1-1.13,1.56,2.22,2.22,0,0,1-.69.6c-.26.18-.52.26-.78.44s-.61.17-.95.26A1.16,1.16,0,0,0,200.75,117.71Zm-20.53-9.78,4.33,9.78h-2.34l-1-2.16h-2v-1.82h1.21l-1.21-2.86v-2.94Zm20.53.08v1.91h-2.34v5.89h1.82c.17,0,.34-.09.52-.09v2h-4.51V108h4.51Zm-15.16,0h1.91l4.67,6.24V108h2.17v9.7h-1.82l-4.76-6.41v6.41h-2.17Zm-6.32,7.54h-2l-.87,2.16h-2.34l4.25-9.78h1v2.94h0l-1.21,2.86h1.21Z"/><path class="cls-2" d="M109.21,117.89h-1a5.22,5.22,0,0,1-1-.35,2.9,2.9,0,0,1-1-.52,11.87,11.87,0,0,1-1.13-1l1.3-1.56a5.37,5.37,0,0,0,.78.69,3.92,3.92,0,0,0,.78.52,2,2,0,0,0,.69.18,2.1,2.1,0,0,0,.7.08h.6c.17-.08.35-.08.52-.17a.74.74,0,0,0,.35-.35.69.69,0,0,0,.08-.43v-.09a.34.34,0,0,0-.08-.26l-.18-.17c-.08-.09-.17-.09-.34-.17l-.52-.26c-.26-.09-.52-.09-.78-.18a10.71,10.71,0,0,1-1.21-.34,9.89,9.89,0,0,1-1-.44,3.16,3.16,0,0,1-.6-.52,1.64,1.64,0,0,1-.35-.52,1.51,1.51,0,0,1-.17-.6,1.88,1.88,0,0,1-.09-.7,2.82,2.82,0,0,1,.26-1.21,2.43,2.43,0,0,1,.78-.86,4.53,4.53,0,0,1,1.13-.61,7.33,7.33,0,0,1,1.47-.17,3.86,3.86,0,0,1,1,.08c.35.09.61.18,1,.26a5,5,0,0,1,.87.52,7.21,7.21,0,0,1,1,.7l-1.3,1.47c-.08-.18-.26-.26-.52-.43a1.33,1.33,0,0,0-.6-.35l-.7-.26a1.82,1.82,0,0,0-.69-.09,1.06,1.06,0,0,0-.52.09.68.68,0,0,0-.43.17,1.37,1.37,0,0,0-.35.26c-.08.09-.08.18-.08.35V111a.65.65,0,0,0,.34.35,1.44,1.44,0,0,0,.52.26,9.17,9.17,0,0,0,1,.26c.43.09.87.26,1.21.35a2.62,2.62,0,0,1,.87.43c.26.17.52.26.61.52a2.47,2.47,0,0,1,.43.52,1.51,1.51,0,0,1,.17.61,1.82,1.82,0,0,1,.09.69,2.4,2.4,0,0,1-.26,1.12,2.74,2.74,0,0,1-.78,1,5.25,5.25,0,0,1-1.21.6,7.61,7.61,0,0,1-1.56.18Zm9.52,0a3.43,3.43,0,0,1-1.38-.18,6.25,6.25,0,0,1-1.21-.43,9,9,0,0,1-1-.78,10.42,10.42,0,0,1-.78-1,5.22,5.22,0,0,1-.43-1.21,3.43,3.43,0,0,1-.17-1.3,3.69,3.69,0,0,1,.17-1.39,7.3,7.3,0,0,1,.43-1.21,9.92,9.92,0,0,1,.78-.95,3,3,0,0,1,1-.78,3.09,3.09,0,0,1,1.22-.52,3.61,3.61,0,0,1,1.38-.17A5.38,5.38,0,0,1,120,108a4.35,4.35,0,0,1,1,.26c.26.18.6.35.87.52a2.64,2.64,0,0,1,.86.78l-1.3,1.56a3.43,3.43,0,0,0-.61-.6,1.33,1.33,0,0,0-.6-.35c-.17-.09-.43-.17-.61-.26a1.82,1.82,0,0,0-.69-.09,2.47,2.47,0,0,0-1.13.26,3.86,3.86,0,0,0-1,.61,2.88,2.88,0,0,0-.6,1,4.16,4.16,0,0,0,0,2.42,3.62,3.62,0,0,0,.6,1,3.73,3.73,0,0,0,.87.69,4.82,4.82,0,0,0,1.12.17h.7c.17-.08.43-.17.6-.26a1.18,1.18,0,0,0,.69-.43,3.94,3.94,0,0,0,.78-.61l1.3,1.39a8.72,8.72,0,0,1-.86.86,6.25,6.25,0,0,1-1,.61c-.26.09-.69.17-1,.26a4.79,4.79,0,0,1-1.13.09Zm5.63-9.88h2.17v9.79h-2.17V108Zm4.25,0H136v2h-5.28v1.9h4.84v1.91h-4.84v2.08h5.37v1.9h-7.45V108Zm8.74,0h2l4.6,6.33V108h2.16v9.79h-1.82l-4.76-6.41v6.41h-2.17V108Zm15.07,9.88a3.28,3.28,0,0,1-1.3-.18,4.94,4.94,0,0,1-1.21-.43,8.81,8.81,0,0,1-.95-.78,2.88,2.88,0,0,1-.78-1,4.91,4.91,0,0,1-.52-1.21,6.44,6.44,0,0,1-.17-1.3,6.61,6.61,0,0,1,.17-1.39c.17-.43.35-.78.52-1.21a2.69,2.69,0,0,1,.78-.95,2.6,2.6,0,0,1,.95-.78,3.73,3.73,0,0,1,1.21-.52,3.93,3.93,0,0,1,1.39-.17,5,5,0,0,1,1.13.08,3.3,3.3,0,0,1,1,.26c.34.18.69.35.95.52a7.62,7.62,0,0,1,.87.78l-1.3,1.56-.61-.6a4.88,4.88,0,0,0-.6-.35l-.7-.26a1.61,1.61,0,0,0-.69-.09,2.73,2.73,0,0,0-1.13.26,3.34,3.34,0,0,0-.86.61,2.08,2.08,0,0,0-.61,1,2.95,2.95,0,0,0,0,2.42,2.35,2.35,0,0,0,.61,1,3.89,3.89,0,0,0,.86.69,4.32,4.32,0,0,0,1.13.17h.61a4.81,4.81,0,0,0,.69-.26,1.54,1.54,0,0,0,.69-.43c.17-.17.43-.35.69-.61l1.39,1.39a10.4,10.4,0,0,1-1,.86,3.49,3.49,0,0,1-1,.61l-1,.26a5.18,5.18,0,0,1-1.22.09ZM158,108h7.44v2h-5.28v1.9h4.76v1.91h-4.76v2.08h5.37v1.9H158Z"/><path class="cls-2" d="M286,117.89v-2.17a5.52,5.52,0,0,0,1.13-.17,2.31,2.31,0,0,0,.87-.7,1.83,1.83,0,0,0,.6-.86,2.68,2.68,0,0,0,.26-1.21,2.59,2.59,0,0,0-.26-1.13,1.9,1.9,0,0,0-.6-.87,4,4,0,0,0-.87-.69,5.52,5.52,0,0,0-1.13-.17v-2.17a3.5,3.5,0,0,1,1.3.26,5,5,0,0,1,1.22.44l1,.78c.26.34.52.69.77,1a4.67,4.67,0,0,1,.44,1.21,3.5,3.5,0,0,1,.26,1.3,3.61,3.61,0,0,1-.26,1.38,4.67,4.67,0,0,1-.44,1.21c-.25.35-.51.7-.77,1l-1,.78c-.35.18-.79.35-1.22.52a6.36,6.36,0,0,1-1.3.18Zm10.92-.09a3.67,3.67,0,0,1-1.39-.17,6.12,6.12,0,0,1-1.13-.44,3,3,0,0,1-1-.69,3.92,3.92,0,0,1-.78-1,2.92,2.92,0,0,1-.52-1.21,5.77,5.77,0,0,1,0-2.86,3.52,3.52,0,0,1,.52-1.21,2.6,2.6,0,0,1,.78-1,5.41,5.41,0,0,1,1-.78,5,5,0,0,1,1.22-.44,7.12,7.12,0,0,1,1.3-.17,5.81,5.81,0,0,1,1.29.09l1,.26a2.24,2.24,0,0,1,.87.52,3.27,3.27,0,0,1,.87.69l-1.3,1.56a5.3,5.3,0,0,0-.69-.61,2.51,2.51,0,0,0-.7-.34,1.56,1.56,0,0,0-.69-.18,1.61,1.61,0,0,0-.69-.09,2.21,2.21,0,0,0-1,.27,2.14,2.14,0,0,0-.95.6,2.7,2.7,0,0,0-.7,1,5,5,0,0,0-.17,1.22,6.43,6.43,0,0,0,.17,1.38,4,4,0,0,0,.7,1,3.66,3.66,0,0,0,.95.6,2.11,2.11,0,0,0,1,.18h.52c.17,0,.34-.09.51-.09s.35-.09.53-.18a1.68,1.68,0,0,0,.43-.26V113.9h-2.43v-1.82H301v4.25a3.68,3.68,0,0,1-.95.69,5.09,5.09,0,0,1-1,.43,2.3,2.3,0,0,1-1.13.26,4,4,0,0,1-1,.09Zm12.3-9.87h2.59l-4,6v3.81h-2.17V113.9l-3.9-6h2.52l2.51,4.07ZM286,107.75v2.17h0a4.62,4.62,0,0,0-1.12.17,3,3,0,0,0-.95.69,3,3,0,0,0-.61.87,2.62,2.62,0,0,0-.17,1.13,2.8,2.8,0,0,0,.17,1.21,2.85,2.85,0,0,0,.61.86,2,2,0,0,0,.95.7,4.62,4.62,0,0,0,1.12.17h0v2.17h0a6.41,6.41,0,0,1-1.38-.18c-.43-.17-.78-.34-1.21-.52a7.93,7.93,0,0,1-.95-.78,4,4,0,0,1-.79-1,2.85,2.85,0,0,1-.51-1.21,3.43,3.43,0,0,1-.18-1.38,3.23,3.23,0,0,1,.18-1.3,2.85,2.85,0,0,1,.51-1.21,4,4,0,0,1,.79-1,7.93,7.93,0,0,1,.95-.78,6.55,6.55,0,0,1,1.21-.44,3.61,3.61,0,0,1,1.38-.26Zm-19.13,10.14v-2.17a5.42,5.42,0,0,0,1.12-.17,2.23,2.23,0,0,0,.87-.7,1.83,1.83,0,0,0,.6-.86,2.68,2.68,0,0,0,.26-1.21,2.59,2.59,0,0,0-.26-1.13,1.9,1.9,0,0,0-.6-.87,3.73,3.73,0,0,0-.87-.69,5.42,5.42,0,0,0-1.12-.17v-2.17a3.49,3.49,0,0,1,1.29.26,4.88,4.88,0,0,1,1.22.44l1,.78c.27.34.53.69.78,1s.35.77.53,1.21a5.36,5.36,0,0,1,0,2.68c-.18.44-.35.87-.53,1.21s-.51.7-.78,1l-1,.78a13.16,13.16,0,0,1-1.22.52,6.36,6.36,0,0,1-1.29.18Zm6.4-10h2.17v7.79h4.93v2h-7.1Zm-56.72,2h-2.86v-2h8v2h-3v7.79h-2.16v-7.79Zm50.32-2.17v2.17h0a4.71,4.71,0,0,0-1.13.17,3,3,0,0,0-.95.69,3,3,0,0,0-.61.87,2.62,2.62,0,0,0-.17,1.13,2.8,2.8,0,0,0,.17,1.21,2.85,2.85,0,0,0,.61.86,2,2,0,0,0,.95.7,4.71,4.71,0,0,0,1.13.17h0v2.17h0a6.5,6.5,0,0,1-1.39-.18c-.43-.17-.78-.34-1.21-.52a7.93,7.93,0,0,1-1-.78,3.77,3.77,0,0,1-.78-1,2.74,2.74,0,0,1-.52-1.21,5.07,5.07,0,0,1,0-2.68,2.74,2.74,0,0,1,.52-1.21,3.77,3.77,0,0,1,.78-1,7.93,7.93,0,0,1,1-.78,6.55,6.55,0,0,1,1.21-.44,3.66,3.66,0,0,1,1.39-.26Zm-44.17.18h7.45v2h-5.29v1.9h4.77v1.91h-4.77v2h5.37v2h-7.53v-9.78Zm13.25,9.87a3.67,3.67,0,0,1-1.39-.17,5,5,0,0,1-1.21-.44,8.81,8.81,0,0,1-.95-.78,7.23,7.23,0,0,1-.78-1,5.07,5.07,0,0,1-.44-1.21,3.4,3.4,0,0,1-.17-1.3,3.61,3.61,0,0,1,.17-1.38,7,7,0,0,1,.44-1.21,9,9,0,0,1,.78-1,2.43,2.43,0,0,1,1-.78,3.05,3.05,0,0,1,1.21-.52,3.61,3.61,0,0,1,1.38-.17,4,4,0,0,1,1,.09,2.2,2.2,0,0,1,1,.26c.26.17.61.34.87.52a3.22,3.22,0,0,1,.86.78L238.51,111a4.26,4.26,0,0,0-.61-.6,2.23,2.23,0,0,0-.61-.35c-.17-.08-.43-.17-.6-.26a2.1,2.1,0,0,0-.7-.09,2.69,2.69,0,0,0-1.21.27,3.09,3.09,0,0,0-.86.6,3.31,3.31,0,0,0-.87,2.25,3.15,3.15,0,0,0,.26,1.22,3.59,3.59,0,0,0,.61,1,3.39,3.39,0,0,0,.86.69,4.24,4.24,0,0,0,1.13.18h.69c.17-.09.43-.18.61-.27a2.89,2.89,0,0,0,.69-.43,2.36,2.36,0,0,0,.69-.6L240,116a7.93,7.93,0,0,1-.87.87,5.81,5.81,0,0,1-1,.6l-1,.26a4.71,4.71,0,0,1-1.12.09Zm5.45-9.87h2.17v3.89h4v-3.89h2.17v9.78h-2.17v-4h-4v4h-2.17v-9.78Zm10.31,0h1.91l4.67,6.32v-6.32h2.08v9.78h-1.82l-4.67-6.41v6.41h-2.17Z"/><path class="cls-1" d="M7.72,99.2.24,81.78H5.5l4.07,11,4.07-11h5.27L11.44,99.2Z"/><path class="cls-2" d="M257.9,45A31.69,31.69,0,0,1,258,19.83C263.19,8,274.79.78,288,.52a33.88,33.88,0,0,1,24.33,9.53l-10,12.81a16.88,16.88,0,0,0-14.47-6.58,15.76,15.76,0,0,0-14.89,16c.08,8.23,7,16,15.76,16.2,5.8.08,11.34-3,13.86-7.45l9.87,13.6c-6.32,6.41-14.9,9.44-23.56,9.61C275.66,64.43,263.1,56.81,257.9,45Z"/><rect class="cls-1" x="72.18" y="0.52" width="17.5" height="63.3"/><polygon class="cls-3" points="0.47 0.52 18.05 0.52 18.05 43.56 50.44 0.52 72.09 0.52 24.46 63.83 0.47 63.83 0.47 0.52"/><path class="cls-1" d="M123.71,63.91c-10.48,0-21-3.11-28.93-10.22l8.92-11.86c6.5,5.37,13.43,7.88,20.61,7.88a9.79,9.79,0,0,0,5.29-1.13,3.86,3.86,0,0,0,1.38-5c-1.56-2.6-7.27-3.55-10-4.24a77.81,77.81,0,0,1-9.18-2.51C103,34,97,27.89,97.73,18.27a18.31,18.31,0,0,1,8.4-14.2C110.55,1.21,116.26,0,121.63,0c9.18,0,18.1,2.34,25.38,8.23L138.08,20a32.86,32.86,0,0,0-11.77-5.29c-3.38-.78-7.45-1.12-9.79.61a3.68,3.68,0,0,0-1,4.85c1,1.56,3.29,2.25,4.94,2.77,1.38.43,3.12.87,5.28,1.39,4.77,1,10.39,2.42,14.9,5.19a16.1,16.1,0,0,1,8.14,15.24,19,19,0,0,1-10.83,16.29A33.2,33.2,0,0,1,123.71,63.91Z"/><polygon class="cls-2" points="254.89 48.84 221.74 48.84 221.74 38.89 251.97 38.89 251.97 25.03 221.74 25.03 221.74 15.94 254.89 15.94 254.89 0.69 204.14 0.69 204.14 63.74 254.89 63.74 254.89 48.84"/><polygon class="cls-2" points="201.26 0.69 147.09 0.69 147.09 15.94 165.97 15.94 165.97 63.74 183.38 63.74 183.38 15.94 201.26 15.94 201.26 0.69"/></g></g></svg>